<?xml version="1.0" encoding="iso-8859-1"?><!-- Generator: Adobe Illustrator 21.0.0, SVG Export Plug-In . SVG Version: 6.00 Build 0)  --><svg xmlns="http://www.w3.org/2000/svg" xmlns:xlink="http://www.w3.org/1999/xlink" viewBox="0 0 50 50" width="50px" height="50px"><path style="fill:none;stroke:#000000;stroke-width:2;stroke-linecap:round;stroke-linejoin:round;stroke-miterlimit:10;" d="M10,47c0-6,1.003-11.05,3.082-15.887c1.621-3.771,4.055-7.553,7.68-10.856"/><path d="M25,13c2.206,0,4,1.794,4,4s-1.794,4-4,4s-4-1.794-4-4S22.794,13,25,13 M25,11c-3.314,0-6,2.686-6,6s2.686,6,6,6s6-2.686,6-6S28.314,11,25,11L25,11z"/><path style="fill:none;stroke:#000000;stroke-width:2;stroke-linecap:round;stroke-miterlimit:10;" d="M18.488,29.388C20.435,30.413,22.648,31,25,31c7.732,0,14-6.268,14-14S32.732,3,25,3S11,9.268,11,17c0,2.381,0.598,4.621,1.647,6.584"/></svg>